# xmcd
#
# Track frame offsets: 
#        150
#        7459
#        22900
#        35767
#        58170
#        82460
#        96900
#        111275
#        120565
#        133221
#        148815
#        162427
#        175905
#
# Disc length: 2573 seconds
#
# Revision: 0
# Processed by: cddbd v1.5.1PL0 Copyright (c) Steve Scherf et al.
# Submitted via: ExactAudioCopy v0.95a4
#
DISCID=c60a0b0d
DTITLE=the Bootcuts - Awful Good!
DYEAR=2001
DGENRE=Country
TTITLE0=Bootcuts Theme
TTITLE1=Milky Moon
TTITLE2=Lima Bean Queen
TTITLE3=Hungry Heart O' Mine
TTITLE4=Six Bux Waltz
TTITLE5=Libido LetGo
TTITLE6=All I Need, and I Don't Care
TTITLE7=Kiss Me on the Lips
TTITLE8=At the Fence
TTITLE9=I Feel Purty
TTITLE10=You My Slave
TTITLE11=Want Someone
TTITLE12=Untitled
EXTD=
EXTT0=
EXTT1=
EXTT2=
EXTT3=
EXTT4=
EXTT5=
EXTT6=
EXTT7=
EXTT8=
EXTT9=
EXTT10=
EXTT11=
EXTT12=
PLAYORDER=
